# xmcd
#
# Track frame offsets: 
#        150
#        13161
#        25879
#        39072
#        53380
#        67458
#        80312
#        92693
#        104395
#        117905
#        130672
#        144621
#        156996
#        169938
#        181255
#        197014
#        210091
#        223019
#        235908
#        247800
#        261481
#        273474
#        285902
#        298906
#        312242
#
# Disc length: 4336 seconds
#
# Revision: 1
# Processed by: cddbd v1.5.2PL0 Copyright (c) Steve Scherf et al.
# Submitted via: ExactAudioCopy v1.0b3
#
DISCID=6610ee19
DTITLE=Roy Acuff - King Of The Hillbillies_CD1
DYEAR=2007
DGENRE=Country
TTITLE0=Singing My Way To Glory
TTITLE1=Charmin' Betsy
TTITLE2=Great Speckle Bird
TTITLE3=My Mountain Home Sweet Home
TTITLE4=Gonna Raise A Ruckus Tonight
TTITLE5=Wabash Cannon Ball
TTITLE6=Freight Train Blues
TTITLE7=You've Got Too See Mama Every Night (Or You Can't See Mama At 
TTITLE7=All)
TTITLE8=Gonna Have A Big Time Tonight
TTITLE9=Yes Sir, That's My Baby
TTITLE10=You're The Only Star (In My Blue Heaven)
TTITLE11=All Night Long
TTITLE12=New Greenback Dollar
TTITLE13=Steamboat Whistle Blues
TTITLE14=She No Longer Belongs To Me
TTITLE15=When Lulu's Gone
TTITLE16=Doin' It The Old Fashioned Way
TTITLE17=An Old Three Room Shack
TTITLE18=Red Lips - Kiss My Blues Away
TTITLE19=Trouble, Trouble
TTITLE20=Sailing Along
TTITLE21=Steel Guitar Chimes
TTITLE22=Lonesome Valley
TTITLE23=Sad Memories
TTITLE24=Steel Guitar Blues
EXTD=
EXTT0=
EXTT1=
EXTT2=
EXTT3=
EXTT4=
EXTT5=
EXTT6=
EXTT7=
EXTT8=
EXTT9=
EXTT10=
EXTT11=
EXTT12=
EXTT13=
EXTT14=
EXTT15=
EXTT16=
EXTT17=
EXTT18=
EXTT19=
EXTT20=
EXTT21=
EXTT22=
EXTT23=
EXTT24=
PLAYORDER=
